<?xml version="1.0" standalone="no"?>
<!DOCTYPE svg PUBLIC "-//W3C//DTD SVG 20010904//EN"
 "http://www.w3.org/TR/2001/REC-SVG-20010904/DTD/svg10.dtd">
<svg version="1.0" xmlns="http://www.w3.org/2000/svg"
 width="460.000000pt" height="460.000000pt" viewBox="0 0 460.000000 460.000000"
 preserveAspectRatio="xMidYMid meet">
<g transform="translate(0.000000,460.000000) scale(0.100000,-0.100000)"
fill="#000000" stroke="none">
<path d="M0 2300 l0 -2300 710 0 710 0 -1 23 c0 13 -3 17 -6 8 -4 -9 -12 -1
-24 23 -10 21 -15 44 -12 52 3 8 0 14 -6 14 -6 0 -11 12 -11 28 -1 15 -7 41
-15 57 l-14 30 5 -30 c3 -16 7 -36 10 -42 2 -7 0 -13 -4 -13 -11 0 -43 101
-36 112 3 5 -4 24 -16 43 -12 19 -19 39 -15 44 3 5 -1 13 -9 18 -7 4 -19 34
-26 66 -6 31 -15 57 -20 57 -4 0 -11 7 -14 16 -4 10 -2 13 7 8 8 -6 8 -3 -1 9
-8 9 -11 25 -7 38 5 14 4 19 -4 15 -17 -11 -14 40 4 74 9 17 11 30 6 30 -6 0
-15 9 -22 21 -10 19 -9 20 13 14 l23 -7 -22 19 c-26 23 -29 39 -11 46 10 4 10
8 -1 15 -22 16 9 41 66 52 46 9 49 8 79 -24 17 -18 34 -39 37 -47 4 -12 7 -12
15 -1 7 11 10 11 15 -2 4 -9 2 -16 -3 -16 -6 0 -10 -5 -10 -11 0 -6 7 -8 17
-5 19 8 33 -9 33 -40 0 -11 11 -31 24 -43 29 -27 49 -78 35 -86 -16 -11 -10
-24 15 -31 l24 -6 -23 -44 c-13 -24 -19 -44 -15 -44 5 0 17 17 27 37 13 28 19
33 21 20 2 -11 9 -16 17 -13 9 3 16 -5 20 -24 3 -15 13 -31 21 -34 8 -3 14
-12 14 -19 0 -7 11 -20 25 -27 14 -7 23 -16 20 -18 -3 -3 0 -11 6 -19 9 -9 8
-17 0 -27 -8 -10 -8 -16 3 -25 10 -8 16 -9 21 -1 7 12 45 14 45 2 0 -5 18 -17
40 -28 22 -10 40 -24 40 -30 0 -7 7 -14 15 -18 8 -3 15 -11 15 -17 0 -8 -5 -7
-17 2 -15 13 -15 12 -6 -6 6 -11 10 -23 10 -27 -1 -3 1 -10 6 -14 4 -4 7 1 8
12 0 10 3 13 6 7 2 -7 9 -13 14 -13 6 0 7 4 4 10 -3 5 -8 20 -10 32 -4 21 -3
22 9 6 7 -10 18 -18 25 -18 6 0 14 -7 17 -15 4 -8 10 -13 14 -10 5 3 6 -5 2
-17 -5 -21 -4 -22 14 -8 19 14 19 14 0 -8 -11 -12 -16 -25 -13 -29 4 -4 14 2
22 13 14 18 14 18 15 -3 0 -18 6 -23 28 -23 21 0 24 2 12 10 -13 8 -12 10 3
10 14 0 17 -5 12 -20 -6 -20 9 -28 20 -10 3 5 14 10 23 10 15 0 15 -2 2 -10
-8 -5 -10 -10 -4 -10 7 0 15 -16 18 -35 l7 -35 1254 0 1255 0 0 2300 0 2300
-2300 0 -2300 0 0 -2300z m3520 2030 c0 -5 -5 -10 -11 -10 -5 0 -7 5 -4 10 3
6 8 10 11 10 2 0 4 -4 4 -10z m-315 -89 c-3 -6 -11 -8 -17 -5 -6 4 -5 9 3 15
16 10 23 4 14 -10z m0 -71 c-3 -5 -11 -10 -16 -10 -6 0 -7 5 -4 10 3 6 11 10
16 10 6 0 7 -4 4 -10z m880 -270 c3 -5 -1 -10 -10 -10 -9 0 -13 5 -10 10 3 6
8 10 10 10 2 0 7 -4 10 -10z m75 6 c0 -3 -4 -8 -10 -11 -5 -3 -10 -1 -10 4 0
6 5 11 10 11 6 0 10 -2 10 -4z m-550 -20 c0 -3 -4 -8 -10 -11 -5 -3 -10 -1
-10 4 0 6 5 11 10 11 6 0 10 -2 10 -4z m360 -6 c-20 -13 -43 -13 -35 0 3 6 16
10 28 10 18 0 19 -2 7 -10z m-126 -15 c-4 -8 -8 -15 -10 -15 -2 0 -4 7 -4 15
0 8 4 15 10 15 5 0 7 -7 4 -15z m-3709 -364 c3 -6 -4 -15 -15 -21 -17 -9 -20
-8 -20 10 0 20 24 28 35 11z m1689 -116 c3 -8 12 -12 21 -9 9 4 17 -1 21 -11
5 -11 14 -15 28 -11 15 4 26 -1 34 -14 13 -21 38 -18 60 8 6 9 12 12 12 6 0
-5 4 -15 9 -23 8 -12 12 -11 28 4 15 16 18 16 21 3 3 -16 51 -43 60 -34 3 3
-1 12 -8 21 -7 9 -10 18 -6 22 3 3 6 1 6 -6 0 -8 7 -11 15 -7 8 3 15 2 15 -3
0 -10 72 -7 90 4 8 5 11 4 7 -2 -10 -16 40 -25 63 -13 16 8 20 8 20 -3 0 -10
18 -17 57 -22 52 -6 56 -8 38 -21 -17 -13 -17 -14 -1 -14 9 0 24 -7 32 -15 9
-9 11 -15 4 -15 -6 0 -9 -4 -5 -10 3 -5 13 -6 21 -3 9 3 20 0 25 -8 8 -14 11
-13 83 17 16 6 18 4 13 -9 -5 -13 -1 -17 16 -16 12 0 31 4 42 8 11 5 29 2 45
-6 14 -7 43 -13 65 -12 48 2 95 -9 95 -23 0 -6 10 -8 23 -4 30 7 76 -22 56
-35 -11 -7 -10 -11 6 -23 11 -8 27 -30 35 -50 8 -23 19 -35 27 -32 7 3 13 -2
13 -11 0 -9 11 -31 26 -50 14 -18 22 -33 18 -33 -4 0 1 -7 12 -15 10 -8 35
-15 54 -15 19 0 48 -7 64 -15 15 -8 35 -15 42 -15 8 0 14 -7 14 -15 0 -9 6
-12 15 -9 11 4 15 -1 15 -17 0 -18 3 -20 9 -10 7 11 10 9 16 -9 4 -12 21 -28
38 -35 18 -8 27 -14 20 -15 -12 0 -12 -37 1 -58 4 -7 1 -12 -7 -12 -10 0 -13
-7 -10 -20 4 -15 11 -18 29 -14 20 5 24 2 24 -15 0 -25 -20 -29 -21 -3 0 14
-2 14 -9 -3 -5 -11 -9 -14 -9 -7 -1 6 -8 12 -17 12 -11 0 -14 -5 -9 -17 4 -10
10 -27 13 -38 2 -11 10 -26 16 -34 8 -11 8 -15 -2 -19 -29 -9 -55 -52 -32 -52
6 0 10 -13 10 -30 0 -16 -4 -30 -10 -30 -5 0 -10 -12 -11 -27 -1 -32 -17 -77
-19 -53 0 12 -3 11 -11 -2 -5 -10 -17 -18 -24 -18 -8 0 -15 -7 -15 -15 0 -8
-7 -15 -16 -15 -9 0 -35 -20 -60 -45 -24 -25 -47 -45 -53 -45 -5 0 -11 -7 -14
-15 -7 -16 -178 -103 -194 -98 -5 2 -24 -10 -42 -26 -17 -16 -31 -27 -31 -25
0 3 -10 -4 -22 -16 -12 -11 -25 -20 -30 -20 -15 0 -8 -38 13 -64 12 -15 20
-28 18 -30 -2 -1 -47 -8 -99 -14 -124 -15 -167 -28 -175 -53 -10 -29 -45 -39
-140 -39 -63 0 -87 4 -99 16 -9 8 -14 20 -10 25 3 5 0 8 -7 7 -7 -2 -13 2 -14
9 0 9 -52 14 -185 18 -381 12 -785 15 -771 6 10 -7 7 -9 -12 -8 -14 1 -23 5
-20 10 2 4 -1 23 -7 43 -9 28 -9 46 0 80 7 24 18 44 24 44 6 0 3 7 -8 15 -12
9 -17 22 -13 35 3 11 1 20 -4 20 -11 0 -12 37 -1 44 4 2 20 -11 35 -30 36 -44
86 -71 98 -53 6 10 13 10 31 2 34 -16 78 -33 85 -33 3 0 0 6 -6 14 -6 7 -9 21
-5 30 5 12 10 13 26 5 10 -6 31 -9 46 -8 31 4 85 -16 121 -43 13 -10 32 -18
42 -18 11 0 18 -3 18 -7 -5 -31 39 -83 70 -83 10 0 31 -2 47 -5 24 -5 36 1 72
35 23 23 42 37 42 31 0 -6 12 -11 28 -11 l27 1 -23 19 c-13 10 -29 17 -37 14
-15 -6 -75 16 -75 28 0 3 -25 14 -54 22 -30 9 -57 20 -60 25 -3 5 -32 7 -63 6
-32 -2 -52 -1 -46 2 10 4 9 8 -1 19 -17 16 -40 19 -31 4 8 -13 -25 -13 -45 0
-13 9 -13 10 0 10 10 0 16 9 15 25 0 27 -20 46 -40 39 -6 -3 -25 1 -41 7 -16
7 -31 13 -34 14 -30 7 -50 29 -50 55 0 17 -5 30 -10 30 -6 0 -10 6 -9 13 3 19
-12 47 -26 47 -16 0 -25 22 -25 61 0 16 -4 29 -10 29 -10 0 -14 -18 -11 -55 2
-17 0 -17 -8 -5 -19 27 -12 68 15 93 23 22 26 30 20 68 -15 111 -16 138 -6
165 8 21 8 30 0 32 -7 3 -6 12 5 28 9 14 13 33 10 44 -5 14 -2 20 10 20 13 0
15 -6 10 -30 -4 -19 -3 -30 4 -30 6 0 11 11 11 25 0 14 6 25 13 25 8 0 7 4 -3
11 -12 8 -12 12 -2 16 9 3 10 9 2 18 -8 9 -6 14 5 19 9 3 13 10 10 16 -3 6 1
13 9 16 11 4 14 14 10 30 -4 15 -2 24 5 24 6 0 11 -4 11 -10 0 -5 5 -10 10
-10 14 0 12 27 -2 33 -7 3 -3 6 10 6 12 1 26 9 29 19 4 9 14 23 22 29 14 11
14 14 1 23 -10 7 -11 10 -2 10 7 0 18 11 24 25 6 14 24 30 39 37 15 7 31 23
34 36 3 12 9 20 14 18 5 -3 11 13 14 37 6 44 1 60 -12 38 -7 -10 -10 -10 -16
-1 -4 7 -2 16 5 20 7 5 9 13 5 21 -5 8 -5 11 0 7 4 -4 14 -3 22 3 8 8 13 8 13
1 0 -6 -6 -13 -12 -16 -7 -3 -4 -5 7 -3 12 1 20 10 20 22 0 13 7 20 19 20 11
0 21 6 24 13 6 20 22 14 32 -13 5 -14 14 -25 20 -25 15 0 12 16 -5 30 -16 14
-20 40 -6 40 5 0 11 -7 15 -15z m-204 -185 c0 -5 -4 -10 -10 -10 -5 0 -10 5
-10 10 0 6 5 10 10 10 6 0 10 -4 10 -10z m1250 -11 c0 -5 6 -7 13 -3 9 5 9 4
1 -5 -8 -9 -18 -8 -40 4 l-29 15 28 0 c15 0 27 -5 27 -11z m-1460 -849 c0 -5
-4 -10 -10 -10 -5 0 -10 5 -10 10 0 6 5 10 10 10 6 0 10 -4 10 -10z m-72 -155
c-3 -3 -9 2 -12 12 -6 14 -5 15 5 6 7 -7 10 -15 7 -18z m1912 -45 c-8 -15 -8
-20 2 -21 10 0 10 -2 0 -6 -6 -2 -10 -9 -6 -14 3 -5 -2 -12 -10 -15 -9 -3 -16
-12 -16 -19 0 -17 69 -30 83 -16 18 18 24 12 22 -21 -4 -86 -25 -98 -174 -99
-47 0 -116 -3 -153 -8 -38 -4 -68 -5 -68 -2 0 4 7 15 15 25 8 11 15 30 15 44
0 13 4 20 10 17 6 -3 10 -1 10 6 0 8 7 6 19 -5 11 -10 37 -20 59 -22 36 -4 40
-2 45 21 6 35 -6 39 -111 33 -66 -4 -78 -3 -52 4 49 13 112 43 162 75 43 28
78 39 131 42 25 1 27 -1 17 -19z m-393 -152 c-3 -7 -5 -2 -5 12 0 14 2 19 5
13 2 -7 2 -19 0 -25z m419 -114 c-3 -8 -2 -14 3 -14 11 0 21 -49 14 -67 -3 -7
-10 -10 -15 -7 -6 4 -8 -2 -3 -15 5 -17 2 -21 -15 -21 -15 0 -20 -5 -17 -14 3
-7 0 -24 -7 -37 -23 -46 -26 -58 -10 -52 7 3 14 1 14 -5 0 -6 -6 -13 -12 -15
-7 -3 -3 -6 8 -6 12 -1 38 6 57 14 48 20 55 19 25 -4 -13 -11 -40 -24 -59 -29
-19 -6 -26 -11 -16 -11 9 -1 17 -7 17 -15 0 -29 -24 -116 -32 -116 -4 0 -8 -6
-8 -14 0 -22 -40 -106 -50 -106 -6 0 -10 -9 -10 -20 0 -11 -6 -20 -14 -20 -18
0 -30 -31 -15 -41 14 -9 -36 -79 -57 -79 -8 0 -14 -3 -14 -7 0 -5 -11 -21 -25
-37 -25 -29 -29 -39 -26 -63 1 -7 -3 -13 -9 -13 -5 0 -10 6 -11 13 0 6 -5 -4
-12 -23 -9 -27 -18 -36 -39 -38 -17 -2 -30 -11 -34 -24 -3 -12 -24 -37 -45
-57 -22 -19 -39 -39 -39 -45 0 -6 -9 -17 -20 -24 -12 -7 -20 -23 -20 -40 0
-17 -8 -32 -21 -40 -11 -7 -19 -19 -16 -25 3 -7 -11 -28 -29 -47 -21 -21 -34
-28 -34 -20 0 8 -9 -4 -21 -27 -12 -24 -25 -43 -30 -43 -5 0 -9 -9 -9 -19 0
-25 -20 -38 -21 -14 0 14 -2 14 -9 -4 -5 -13 -14 -23 -19 -23 -5 0 -12 -11
-15 -25 -7 -27 -34 -33 -54 -13 -8 8 -15 8 -26 -1 -8 -7 -20 -11 -28 -10 -30
6 -88 -12 -88 -28 0 -13 -9 -14 -57 -8 -33 3 -63 13 -70 21 -10 13 -12 12 -18
-7 -7 -22 -8 -22 -20 7 -8 16 -14 23 -14 17 -1 -18 -31 -16 -31 2 0 7 -8 19
-17 24 -10 6 -14 11 -9 11 20 0 -39 50 -60 50 -17 0 -25 9 -34 34 -8 24 -16
33 -26 29 -8 -3 -14 1 -14 9 0 7 -9 19 -19 25 -16 10 -20 9 -24 -5 -3 -9 -5
-3 -6 15 0 18 -7 36 -15 40 -8 4 -16 22 -18 38 -2 17 -8 29 -15 27 -7 -1 -13
6 -13 15 0 12 -3 14 -8 6 -8 -13 -36 -1 -30 13 1 5 -9 10 -24 12 -20 2 -28 9
-28 24 0 13 -5 18 -14 15 -8 -3 -25 5 -38 18 -13 14 -29 25 -35 25 -7 0 -13 7
-13 16 0 8 -4 12 -10 9 -5 -3 -10 3 -10 15 0 12 -5 18 -10 15 -6 -3 -13 1 -16
10 -4 8 -14 14 -23 13 -10 -2 -15 3 -13 15 2 9 -2 17 -8 17 -5 0 -10 7 -10 15
0 8 -13 24 -29 36 -31 22 -47 59 -28 59 8 0 8 3 -1 8 -7 5 -11 22 -8 43 5 50
-11 84 -58 127 -23 20 -53 61 -66 90 -14 28 -28 52 -31 52 -4 0 -10 16 -14 36
-4 26 -2 39 7 45 10 7 10 9 1 9 -7 0 -13 9 -13 20 0 13 -5 17 -14 14 -10 -4
-16 2 -18 18 -2 13 -9 22 -16 20 -8 -1 -10 2 -7 9 4 6 17 8 30 5 18 -5 24 -1
27 19 3 15 1 22 -5 18 -6 -4 -8 0 -4 10 3 9 2 19 -3 22 -5 3 -7 -12 -5 -32 2
-21 2 -33 -1 -26 -3 6 -16 9 -30 7 -17 -3 -23 -1 -19 6 4 6 14 9 22 6 12 -5
14 2 11 39 -2 25 0 45 4 45 5 0 8 -5 8 -12 0 -6 3 -8 6 -5 4 4 0 17 -9 30 -17
26 -9 49 20 54 91 18 161 21 300 16 111 -4 163 -3 163 4 0 11 99 9 150 -2 14
-3 69 -9 123 -14 54 -4 100 -11 103 -14 3 -3 0 -22 -7 -42 -13 -34 -12 -38 8
-53 29 -23 39 -60 18 -68 -13 -5 -13 -9 -3 -22 10 -12 10 -14 1 -8 -9 5 -11 2
-6 -10 5 -14 8 -13 24 7 10 13 30 48 44 77 l26 52 119 0 c117 0 120 -1 125
-23 4 -13 5 -27 4 -33 -4 -17 13 -63 28 -76 14 -11 15 -5 9 55 -5 55 -3 67 8
67 23 0 28 17 17 55 -9 34 -9 36 20 42 16 3 27 9 24 13 -3 4 12 10 33 14 57 9
84 7 76 -5 -4 -8 3 -9 22 -6 16 3 126 11 244 18 118 6 216 13 218 14 10 9 42
-10 38 -21z m-1987 -31 c-6 -7 -17 -13 -23 -12 -7 0 -6 2 2 6 6 2 10 8 8 12
-3 4 1 8 9 8 11 0 12 -4 4 -14z m1288 -58 c0 -8 -4 -12 -9 -9 -4 3 -8 9 -8 15
0 5 4 9 8 9 5 0 9 -7 9 -15z m-177 -5 c0 -5 -15 -10 -32 -9 -31 1 -32 1 -8 9
35 11 40 11 40 0z m-1100 -64 c0 -3 -4 -8 -10 -11 -5 -3 -10 -1 -10 4 0 6 5
11 10 11 6 0 10 -2 10 -4z m-10 -847 c0 -6 -4 -7 -10 -4 -5 3 -10 11 -10 16 0
6 5 7 10 4 6 -3 10 -11 10 -16z m-103 -221 c-3 -7 -5 -2 -5 12 0 14 2 19 5 13
2 -7 2 -19 0 -25z m350 -90 c-3 -8 -6 -5 -6 6 -1 11 2 17 5 13 3 -3 4 -12 1
-19z m188 -226 c-3 -3 -11 0 -18 7 -9 10 -8 11 6 5 10 -3 15 -9 12 -12z m-32
-27 c-3 -9 -8 -14 -10 -11 -3 3 -2 9 2 15 9 16 15 13 8 -4z"/>
<path d="M1720 3270 c0 -5 5 -10 10 -10 6 0 10 5 10 10 0 6 -4 10 -10 10 -5 0
-10 -4 -10 -10z"/>
<path d="M3302 2756 c7 -8 15 -12 17 -11 5 6 -10 25 -20 25 -5 0 -4 -6 3 -14z"/>
<path d="M1406 2481 c-4 -7 -5 -15 -2 -18 9 -9 19 4 14 18 -4 11 -6 11 -12 0z"/>
<path d="M1615 2030 l-30 -7 27 -7 c28 -8 72 7 47 16 -8 2 -27 1 -44 -2z"/>
<path d="M1330 1820 c0 -5 5 -10 11 -10 5 0 7 5 4 10 -3 6 -8 10 -11 10 -2 0
-4 -4 -4 -10z"/>
<path d="M1370 1660 c0 -5 5 -10 11 -10 5 0 7 5 4 10 -3 6 -8 10 -11 10 -2 0
-4 -4 -4 -10z"/>
<path d="M2886 1265 c-8 -8 -22 -15 -30 -15 -9 0 -16 -4 -16 -10 0 -5 8 -7 18
-4 13 5 14 4 3 -4 -8 -6 -11 -18 -7 -28 6 -18 5 -18 -7 -2 -8 10 -17 15 -20
11 -4 -3 -7 1 -7 10 0 9 -4 19 -10 22 -5 3 -7 0 -4 -8 3 -9 -3 -16 -14 -19
-23 -6 -34 0 -51 27 -9 14 -11 15 -7 3 6 -19 -12 -36 -23 -22 -3 5 -14 10 -24
11 -15 1 -17 -4 -12 -25 5 -22 4 -24 -9 -13 -12 10 -16 9 -25 -7 -7 -13 -7
-22 2 -31 9 -10 8 -11 -4 -6 -10 4 -20 1 -24 -4 -3 -6 -10 -9 -15 -6 -15 9
-22 -14 -10 -34 7 -14 7 -22 -1 -26 -6 -4 -13 3 -16 15 l-6 21 -23 -22 c-27
-25 -31 -49 -9 -49 17 0 20 -16 6 -24 -5 -4 -12 0 -15 6 -3 7 -4 1 -3 -14 4
-39 11 -42 55 -22 32 15 39 24 40 48 0 16 6 34 11 39 8 8 10 -3 6 -38 -3 -28
-3 -45 1 -38 3 7 12 9 20 6 9 -3 14 2 14 15 0 22 20 42 20 20 1 -8 6 -6 15 6
8 11 15 16 15 11 0 -5 7 0 15 12 8 12 12 29 8 39 -5 13 -3 15 8 9 11 -6 12 -5
2 6 -7 7 -13 20 -12 29 0 10 2 11 6 2 2 -6 10 -9 15 -6 6 4 8 3 5 -2 -3 -6 3
-15 13 -22 16 -10 23 -8 42 11 13 13 29 22 36 19 7 -2 12 1 12 7 0 6 9 11 20
11 11 0 20 -7 20 -15 0 -9 6 -12 16 -8 14 5 16 2 10 -21 -5 -19 -3 -26 4 -21
6 4 17 1 25 -5 11 -9 15 -9 15 -1 0 6 -5 11 -10 11 -13 0 -1 50 17 68 7 7 13
21 13 30 0 15 -2 15 -10 2 -6 -9 -10 -10 -10 -3 0 6 5 15 10 18 15 9 12 25 -5
25 -8 0 -15 5 -15 10 0 16 -67 12 -84 -5z m-142 -73 c-6 -4 -14 -14 -17 -22
-4 -10 -6 -8 -6 8 -1 15 5 22 17 22 10 0 13 -3 6 -8z m-47 -44 c-3 -8 -6 -5
-6 6 -1 11 2 17 5 13 3 -3 4 -12 1 -19z m-59 -23 c-3 -3 -9 2 -12 12 -6 14 -5
15 5 6 7 -7 10 -15 7 -18z m82 -5 c0 -5 -4 -10 -10 -10 -5 0 -10 5 -10 10 0 6
5 10 10 10 6 0 10 -4 10 -10z"/>
<path d="M1870 1171 c0 -5 -10 -7 -22 -3 -14 3 -19 2 -14 -6 4 -7 1 -12 -7
-12 -8 0 -18 -7 -21 -16 -8 -21 -26 -8 -27 19 -1 17 -3 15 -9 -8 -4 -16 -8
-24 -9 -17 0 7 -6 10 -12 7 -6 -4 -9 0 -7 8 2 9 -1 15 -7 14 -12 -2 -7 -37 7
-54 6 -7 15 -10 21 -6 6 4 8 0 4 -11 -4 -9 -3 -14 2 -11 5 3 12 1 16 -4 3 -6
18 -5 38 3 17 8 37 12 44 9 6 -2 18 6 27 19 18 25 22 53 6 43 -5 -3 -10 3 -10
14 0 12 -4 21 -10 21 -5 0 -10 -4 -10 -9z"/>
<path d="M2105 1169 c-4 -6 -13 -8 -21 -5 -8 3 -14 1 -14 -3 0 -5 -3 -16 -6
-25 -3 -9 -1 -16 5 -16 6 0 11 7 11 15 0 8 5 15 10 15 6 0 10 -3 10 -7 -1 -16
-28 -43 -42 -43 -9 0 -14 -12 -15 -37 -1 -34 0 -36 9 -13 7 20 11 22 19 10 8
-11 9 -9 4 9 -5 15 -3 21 3 17 6 -3 12 -1 14 6 3 7 5 -5 6 -26 2 -50 12 -61
12 -13 l0 37 28 -32 c24 -26 29 -28 29 -12 -1 50 4 75 13 69 14 -9 12 19 -2
33 -17 17 -31 15 -25 -3 4 -8 2 -17 -4 -20 -5 -4 -12 1 -15 9 -3 9 -10 14 -14
11 -5 -3 -6 4 -3 15 6 21 -2 27 -12 9z"/>
<path d="M2002 1140 c0 -14 2 -19 5 -12 2 6 2 18 0 25 -3 6 -5 1 -5 -13z"/>
<path d="M1910 1110 c0 -5 5 -10 10 -10 6 0 10 5 10 10 0 6 -4 10 -10 10 -5 0
-10 -4 -10 -10z"/>
<path d="M2021 1104 c0 -11 3 -14 6 -6 3 7 2 16 -1 19 -3 4 -6 -2 -5 -13z"/>
<path d="M2224 1105 c-3 -8 -3 -19 1 -26 10 -16 -16 -30 -32 -17 -7 6 -13 7
-13 3 0 -4 10 -15 22 -25 18 -14 20 -21 10 -32 -9 -12 -7 -19 15 -39 14 -13
23 -18 18 -10 -6 11 -5 12 6 5 21 -13 59 -12 59 3 0 7 8 13 18 14 10 0 12 3 5
6 -7 2 -13 12 -13 22 0 9 -6 23 -12 30 -11 11 -10 12 1 6 11 -6 13 -4 8 9 -4
10 -7 19 -7 22 0 2 -18 12 -41 23 -33 16 -41 17 -45 6z m39 -38 c-4 -6 0 -8
10 -4 10 3 17 2 17 -3 0 -18 -18 -19 -34 -1 -13 15 -14 18 -1 18 8 0 11 -5 8
-10z m-10 -42 c-7 -21 -13 -19 -13 6 0 11 4 18 10 14 5 -3 7 -12 3 -20z"/>
<path d="M2006 1077 c3 -10 9 -15 12 -12 3 3 0 11 -7 18 -10 9 -11 8 -5 -6z"/>
<path d="M2931 1054 c0 -11 3 -14 6 -6 3 7 2 16 -1 19 -3 4 -6 -2 -5 -13z"/>
<path d="M2123 1028 c0 -21 5 -34 9 -30 4 4 3 21 -2 37 -9 30 -9 30 -7 -7z"/>
<path d="M2377 1042 c1 -8 3 -16 3 -18 0 -2 7 -4 15 -4 8 0 15 5 15 10 0 6 -6
10 -14 10 -8 0 -16 3 -19 8 -2 4 -2 1 0 -6z"/>
<path d="M2415 1050 c4 -6 11 -8 16 -5 14 9 11 15 -7 15 -8 0 -12 -5 -9 -10z"/>
<path d="M2495 1040 c3 -5 8 -10 11 -10 2 0 4 5 4 10 0 6 -5 10 -11 10 -5 0
-7 -4 -4 -10z"/>
<path d="M2175 1010 c-24 -27 -16 -33 14 -11 13 10 19 21 14 24 -6 4 -18 -2
-28 -13z"/>
<path d="M2364 999 c-3 -6 -2 -15 4 -21 6 -6 12 -6 16 1 4 6 2 11 -4 11 -6 0
-8 5 -5 10 3 6 4 10 1 10 -3 0 -8 -5 -12 -11z"/>
<path d="M1241 484 c0 -11 3 -14 6 -6 3 7 2 16 -1 19 -3 4 -6 -2 -5 -13z"/>
<path d="M1541 454 c0 -11 3 -14 6 -6 3 7 2 16 -1 19 -3 4 -6 -2 -5 -13z"/>
<path d="M1565 390 c3 -5 8 -10 11 -10 2 0 4 5 4 10 0 6 -5 10 -11 10 -5 0 -7
-4 -4 -10z"/>
<path d="M1600 376 c0 -2 7 -6 15 -10 8 -3 15 -1 15 4 0 6 -7 10 -15 10 -8 0
-15 -2 -15 -4z"/>
<path d="M1768 227 c-3 -19 -2 -25 4 -19 6 6 8 18 6 28 -3 14 -5 12 -10 -9z"/>
<path d="M1897 173 c-4 -7 -3 -21 2 -31 6 -11 7 -22 4 -26 -3 -3 -2 -6 4 -6
16 0 23 12 14 24 -5 6 -11 20 -13 31 -2 14 -6 16 -11 8z"/>
<path d="M1505 161 c-3 -5 -1 -12 5 -16 5 -3 10 1 10 9 0 18 -6 21 -15 7z"/>
<path d="M1425 150 c3 -5 8 -10 11 -10 2 0 4 5 4 10 0 6 -5 10 -11 10 -5 0 -7
-4 -4 -10z"/>
<path d="M1570 39 l-25 -6 25 -10 c14 -6 26 -7 28 -2 7 18 -4 25 -28 18z"/>
</g>
</svg>
